<svg width="22" height="22" viewBox="0 0 22 22" fill="none" xmlns="http://www.w3.org/2000/svg">
<path d="M3.4375 11H18.5625M3.4375 14.4375H18.5625M3.4375 17.875H18.5625M5.15625 4.125H16.8438C17.2996 4.125 17.7368 4.30608 18.0591 4.62841C18.3814 4.95074 18.5625 5.38791 18.5625 5.84375C18.5625 6.29959 18.3814 6.73676 18.0591 7.05909C17.7368 7.38142 17.2996 7.5625 16.8438 7.5625H5.15625C4.70041 7.5625 4.26324 7.38142 3.94091 7.05909C3.61858 6.73676 3.4375 6.29959 3.4375 5.84375C3.4375 5.38791 3.61858 4.95074 3.94091 4.62841C4.26324 4.30608 4.70041 4.125 5.15625 4.125V4.125Z" stroke="#14171C" stroke-width="1.5" stroke-linecap="round" stroke-linejoin="round"/>
</svg>
