<svg width="24" height="25" viewBox="0 0 24 25" fill="none" xmlns="http://www.w3.org/2000/svg">
<path d="M11.6676 3.00082C11.766 2.93529 11.8817 2.90033 12 2.90033C12.1183 2.90033 12.2339 2.93529 12.3324 3.00082C14.5978 4.52805 17.1802 5.52139 19.8852 5.90602C20.0281 5.92652 20.1588 5.99787 20.2534 6.10698C20.3479 6.21609 20.4 6.35564 20.4 6.50002V11.9C20.4 16.5692 17.6316 19.976 12.216 22.0604C12.077 22.1141 11.923 22.1141 11.784 22.0604C6.36957 19.976 3.59998 16.568 3.59998 11.9V6.50002C3.6 6.35546 3.65221 6.21576 3.74702 6.10663C3.84182 5.9975 3.97284 5.92626 4.11598 5.90602C6.8205 5.52121 9.40249 4.52789 11.6676 3.00082Z" fill="#B2BBC8"/>
</svg>
