<svg width="24" height="25" viewBox="0 0 24 25" fill="none" xmlns="http://www.w3.org/2000/svg">
<path d="M12.3324 3.00082C12.2339 2.93529 12.1183 2.90033 12 2.90033C11.8817 2.90033 11.766 2.93529 11.6676 3.00082C9.40214 4.52805 6.81972 5.52139 4.11478 5.90602C3.97186 5.92652 3.84112 5.99787 3.74656 6.10698C3.652 6.21609 3.59996 6.35564 3.59998 6.50002V11.9C3.59998 16.5692 6.36838 19.976 11.784 22.0604C11.923 22.1141 12.077 22.1141 12.216 22.0604C17.6316 19.976 20.4 16.568 20.4 11.9V6.50002C20.4 6.35546 20.3477 6.21576 20.2529 6.10663C20.1581 5.9975 20.0271 5.92626 19.884 5.90602C17.1794 5.52121 14.5975 4.52789 12.3324 3.00082ZM12 11.9C11.3635 11.9 10.753 11.6472 10.3029 11.1971C9.85283 10.747 9.59998 10.1365 9.59998 9.50002C9.59998 8.8635 9.85283 8.25305 10.3029 7.80296C10.753 7.35288 11.3635 7.10002 12 7.10002C12.6365 7.10002 13.2469 7.35288 13.697 7.80296C14.1471 8.25305 14.4 8.8635 14.4 9.50002C14.4 10.1365 14.1471 10.747 13.697 11.1971C13.2469 11.6472 12.6365 11.9 12 11.9ZM12 17.9C8.99998 17.9 7.79998 16.4 7.79998 14.9C7.79998 14.4226 7.98962 13.9648 8.32718 13.6272C8.66475 13.2897 9.12259 13.1 9.59998 13.1H14.4C14.8774 13.1 15.3352 13.2897 15.6728 13.6272C16.0103 13.9648 16.2 14.4226 16.2 14.9C16.2 16.394 15 17.9 12 17.9Z" fill="#0BC15A"/>
</svg>
